REM DIRINDEX 1\2,1\3
REM DIRNAME folder01,folder02,folder03
TITLE ""
FILE "CD2Track20.mp3" MP3
  TRACK 01 AUDIO
    TITLE "0:"
    INDEX 01 00:00:00
  TRACK 02 AUDIO
    TITLE "2:cjc102_3224"
    INDEX 01 00:00:29
  TRACK 03 AUDIO
    TITLE "0:"
    INDEX 01 00:01:07
  TRACK 04 AUDIO
    TITLE "3:cjc102_3225"
    INDEX 01 00:01:60
  TRACK 05 AUDIO
    TITLE "0:"
    INDEX 01 00:03:23
  TRACK 06 AUDIO
    TITLE "3:cjc102_3226"
    INDEX 01 00:05:09
  TRACK 07 AUDIO
    TITLE "0:"
    INDEX 01 00:08:42
  TRACK 08 AUDIO
    TITLE "2:cjc102_3227"
    INDEX 01 00:08:46
  TRACK 09 AUDIO
    TITLE "0:"
    INDEX 01 00:09:57
  TRACK 10 AUDIO
    TITLE "3:cjc102_3228"
    INDEX 01 00:10:51
  TRACK 11 AUDIO
    TITLE "0:"
    INDEX 01 00:11:48
  TRACK 12 AUDIO
    TITLE "2:cjc102_3229"
    INDEX 01 00:12:12
  TRACK 13 AUDIO
    TITLE "0:"
    INDEX 01 00:13:24
  TRACK 14 AUDIO
    TITLE "3:cjc102_3230"
    INDEX 01 00:13:61
  TRACK 15 AUDIO
    TITLE "0:"
    INDEX 01 00:14:45
  TRACK 16 AUDIO
    TITLE "2:cjc102_3231"
    INDEX 01 00:15:15
  TRACK 17 AUDIO
    TITLE "0:"
    INDEX 01 00:16:22
  TRACK 18 AUDIO
    TITLE "3:cjc102_3232"
    INDEX 01 00:17:37
  TRACK 19 AUDIO
    TITLE "0:"
    INDEX 01 00:18:37
  TRACK 20 AUDIO
    TITLE "2:cjc102_3233"
    INDEX 01 00:18:54
  TRACK 21 AUDIO
    TITLE "0:"
    INDEX 01 00:19:69
  TRACK 22 AUDIO
    TITLE "3:cjc102_3234"
    INDEX 01 00:21:35
  TRACK 23 AUDIO
    TITLE "0:"
    INDEX 01 00:22:19
  TRACK 24 AUDIO
    TITLE "2:cjc102_3235"
    INDEX 01 00:22:23
  TRACK 25 AUDIO
    TITLE "0:"
    INDEX 01 00:23:28
  TRACK 26 AUDIO
    TITLE "3:cjc102_3236"
    INDEX 01 00:24:04
  TRACK 27 AUDIO
    TITLE "0:"
    INDEX 01 00:24:61
  TRACK 28 AUDIO
    TITLE "2:cjc102_3237"
    INDEX 01 00:25:33
  TRACK 29 AUDIO
    TITLE "0:"
    INDEX 01 00:26:46
  TRACK 30 AUDIO
    TITLE "3:cjc102_3238"
    INDEX 01 00:27:32
  TRACK 31 AUDIO
    TITLE "0:"
    INDEX 01 00:28:27
  TRACK 32 AUDIO
    TITLE "2:cjc102_3239"
    INDEX 01 00:28:49
  TRACK 33 AUDIO
    TITLE "0:"
    INDEX 01 00:29:64
  TRACK 34 AUDIO
    TITLE "3:cjc102_3240"
    INDEX 01 00:30:57
  TRACK 35 AUDIO
    TITLE "0:"
    INDEX 01 00:31:49
  TRACK 36 AUDIO
    TITLE "2:cjc102_3241"
    INDEX 01 00:32:25
  TRACK 37 AUDIO
    TITLE "0:"
    INDEX 01 00:33:34
  TRACK 38 AUDIO
    TITLE "3:cjc102_3242"
    INDEX 01 00:34:61
  TRACK 39 AUDIO
    TITLE "0:"
    INDEX 01 00:35:57
  TRACK 40 AUDIO
    TITLE "2:cjc102_3243"
    INDEX 01 00:35:66
  TRACK 41 AUDIO
    TITLE "0:"
    INDEX 01 00:37:03
  TRACK 42 AUDIO
    TITLE "3:cjc102_3244"
    INDEX 01 00:38:57
  TRACK 43 AUDIO
    TITLE "0:"
    INDEX 01 00:39:51
  TRACK 44 AUDIO
    TITLE "2:cjc102_3245"
    INDEX 01 00:40:42
  TRACK 45 AUDIO
    TITLE "0:"
    INDEX 01 00:41:63
  TRACK 46 AUDIO
    TITLE "3:cjc102_3246"
    INDEX 01 00:42:33
  TRACK 47 AUDIO
    TITLE "0:"
    INDEX 01 00:43:27
  TRACK 48 AUDIO
    TITLE "2:cjc102_3247"
    INDEX 01 00:43:62
  TRACK 49 AUDIO
    TITLE "0:"
    INDEX 01 00:44:69
  TRACK 50 AUDIO
    TITLE "3:cjc102_3248"
    INDEX 01 00:45:10
  TRACK 51 AUDIO
    TITLE "0:"
    INDEX 01 00:46:25
  TRACK 52 AUDIO
    TITLE "2:cjc102_3249"
    INDEX 01 00:47:30
  TRACK 53 AUDIO
    TITLE "0:"
    INDEX 01 00:48:46
  TRACK 54 AUDIO
    TITLE "3:cjc102_3250"
    INDEX 01 00:49:06
  TRACK 55 AUDIO
    TITLE "0:"
    INDEX 01 00:50:15
  TRACK 56 AUDIO
    TITLE "2:cjc102_3251"
    INDEX 01 00:50:52
  TRACK 57 AUDIO
    TITLE "0:"
    INDEX 01 00:52:02
  TRACK 58 AUDIO
    TITLE "3:cjc102_3252"
    INDEX 01 00:53:00
  TRACK 59 AUDIO
    TITLE "0:"
    INDEX 01 00:54:17
  TRACK 60 AUDIO
    TITLE "2:cjc102_3253"
    INDEX 01 00:54:19
  TRACK 61 AUDIO
    TITLE "0:"
    INDEX 01 00:55:22
  TRACK 62 AUDIO
    TITLE "3:cjc102_3254"
    INDEX 01 00:56:18
  TRACK 63 AUDIO
    TITLE "0:"
    INDEX 01 00:57:37
  TRACK 64 AUDIO
    TITLE "2:cjc102_3255"
    INDEX 01 00:58:09
  TRACK 65 AUDIO
    TITLE "0:"
    INDEX 01 00:59:16
  TRACK 66 AUDIO
    TITLE "3:cjc102_3256"
    INDEX 01 01:00:19
  TRACK 67 AUDIO
    TITLE "0:"
    INDEX 01 01:01:27
  TRACK 68 AUDIO
    TITLE "2:cjc102_3257"
    INDEX 01 01:01:56
  TRACK 69 AUDIO
    TITLE "0:"
    INDEX 01 01:02:55
  TRACK 70 AUDIO
    TITLE "3:cjc102_3258"
    INDEX 01 01:04:01
  TRACK 71 AUDIO
    TITLE "0:"
    INDEX 01 01:05:13
  TRACK 72 AUDIO
    TITLE "2:cjc102_3259"
    INDEX 01 01:05:17
  TRACK 73 AUDIO
    TITLE "0:"
    INDEX 01 01:06:16
  TRACK 74 AUDIO
    TITLE "3:cjc102_3260"
    INDEX 01 01:07:45
  TRACK 75 AUDIO
    TITLE "0:"
    INDEX 01 01:08:64
  TRACK 76 AUDIO
    TITLE "2:cjc102_3261"
    INDEX 01 01:08:72
  TRACK 77 AUDIO
    TITLE "0:"
    INDEX 01 01:10:16
  TRACK 78 AUDIO
    TITLE "2:cjc102_3262"
    INDEX 01 01:10:57
  TRACK 79 AUDIO
    TITLE "0:"
    INDEX 01 01:12:07
  TRACK 80 AUDIO
    TITLE "3:cjc102_3263"
    INDEX 01 01:13:18
  TRACK 81 AUDIO
    TITLE "0:"
    INDEX 01 01:14:43
  TRACK 82 AUDIO
    TITLE "2:cjc102_3264"
    INDEX 01 01:14:49
  TRACK 83 AUDIO
    TITLE "0:"
    INDEX 01 01:15:60
  TRACK 84 AUDIO
    TITLE "2:cjc102_3265"
    INDEX 01 01:16:28
  TRACK 85 AUDIO
    TITLE "0:"
    INDEX 01 01:17:47
  TRACK 86 AUDIO
    TITLE "3:cjc102_3266"
    INDEX 01 01:18:37
  TRACK 87 AUDIO
    TITLE "0:"
    INDEX 01 01:19:58
  TRACK 88 AUDIO
    TITLE "2:cjc102_3267"
    INDEX 01 01:20:00
  TRACK 89 AUDIO
    TITLE "0:"
    INDEX 01 01:21:16
  TRACK 90 AUDIO
    TITLE "2:cjc102_3268"
    INDEX 01 01:21:61
  TRACK 91 AUDIO
    TITLE "0:"
    INDEX 01 01:23:09
  TRACK 92 AUDIO
    TITLE "3:cjc102_3269"
    INDEX 01 01:23:54
  TRACK 93 AUDIO
    TITLE "0:"
    INDEX 01 01:24:67
  TRACK 94 AUDIO
    TITLE "2:cjc102_3270"
    INDEX 01 01:25:19
  TRACK 95 AUDIO
    TITLE "0:"
    INDEX 01 01:26:19
  TRACK 96 AUDIO
    TITLE "2:cjc102_3271"
    INDEX 01 01:27:06
  TRACK 97 AUDIO
    TITLE "0:"
    INDEX 01 01:28:18
  TRACK 98 AUDIO
    TITLE "3:cjc102_3272"
    INDEX 01 01:29:17
  TRACK 99 AUDIO
    TITLE "0:"
    INDEX 01 01:30:32
  TRACK 100 AUDIO
    TITLE "2:cjc102_3273"
    INDEX 01 01:30:34
  TRACK 101 AUDIO
    TITLE "0:"
    INDEX 01 01:31:34
  TRACK 102 AUDIO
    TITLE "2:cjc102_3274"
    INDEX 01 01:32:02
  TRACK 103 AUDIO
    TITLE "0:"
    INDEX 01 01:33:13
  TRACK 104 AUDIO
    TITLE "3:cjc102_3275"
    INDEX 01 01:34:55
  TRACK 105 AUDIO
    TITLE "0:"
    INDEX 01 01:36:03
  TRACK 106 AUDIO
    TITLE "2:cjc102_3276"
    INDEX 01 01:36:50
  TRACK 107 AUDIO
    TITLE "0:"
    INDEX 01 01:39:04
  TRACK 108 AUDIO
    TITLE "3:cjc102_3277"
    INDEX 01 01:39:55
  TRACK 109 AUDIO
    TITLE "0:"
    INDEX 01 01:41:09
  TRACK 110 AUDIO
    TITLE "2:cjc102_3278"
    INDEX 01 01:41:32
  TRACK 111 AUDIO
    TITLE "0:"
    INDEX 01 01:44:64
  TRACK 112 AUDIO
    TITLE "3:cjc102_3279"
    INDEX 01 01:45:57
  TRACK 113 AUDIO
    TITLE "0:"
    INDEX 01 01:47:13
  TRACK 114 AUDIO
    TITLE "2:cjc102_3280"
    INDEX 01 01:47:39
  TRACK 115 AUDIO
    TITLE "0:"
    INDEX 01 01:51:60
  TRACK 116 AUDIO
    TITLE "3:cjc102_3281"
    INDEX 01 01:52:73
  TRACK 117 AUDIO
    TITLE "0:"
    INDEX 01 01:54:19
  TRACK 118 AUDIO
    TITLE "2:cjc102_3282"
    INDEX 01 01:54:31
  TRACK 119 AUDIO
    TITLE "0:"
    INDEX 01 01:57:49
